<?xml version="1.0" encoding="UTF-8"?>
<svg version="1.1" xmlns="http://www.w3.org/2000/svg" width="32" height="32">
<path d="M0 0 C1.125 2.5 1.125 2.5 2 5 C3.32 5.33 4.64 5.66 6 6 C6.66 13.26 7.32 20.52 8 28 C0.08 28 -7.84 28 -16 28 C-15.67 20.74 -15.34 13.48 -15 6 C-13.68 5.67 -12.36 5.34 -11 5 C-9.3553326 2.53673288 -9.3553326 2.53673288 -8 0 C-5.01122021 -1.4943899 -3.14997454 -0.91874257 0 0 Z M-5 2 C-5.66 3.32 -6.32 4.64 -7 6 C-5.35 6 -3.7 6 -2 6 C-2.33 4.68 -2.66 3.36 -3 2 C-3.66 2 -4.32 2 -5 2 Z " fill="#B95D26" transform="translate(21,2)"/>
<path d="M0 0 C1.125 2.5 1.125 2.5 2 5 C3.32 5.33 4.64 5.66 6 6 C6.66 13.26 7.32 20.52 8 28 C0.08 28 -7.84 28 -16 28 C-15.67 20.74 -15.34 13.48 -15 6 C-13.68 5.67 -12.36 5.34 -11 5 C-9.3553326 2.53673288 -9.3553326 2.53673288 -8 0 C-5.01122021 -1.4943899 -3.14997454 -0.91874257 0 0 Z M-5 2 C-5.66 3.32 -6.32 4.64 -7 6 C-5.35 6 -3.7 6 -2 6 C-2.33 4.68 -2.66 3.36 -3 2 C-3.66 2 -4.32 2 -5 2 Z M-1 3 C-1 4.32 -1 5.64 -1 7 C-3.31 7 -5.62 7 -8 7 C-8.33 7.99 -8.66 8.98 -9 10 C-9.66 10 -10.32 10 -11 10 C-11 9.01 -11 8.02 -11 7 C-11.99 7 -12.98 7 -14 7 C-14 13.6 -14 20.2 -14 27 C-7.07760427 27.07866359 -0.92021496 26.86502687 6 26 C5.505 16.595 5.505 16.595 5 7 C4.01 7 3.02 7 2 7 C1.67 7.99 1.34 8.98 1 10 C0.34 10 -0.32 10 -1 10 C-1.33 9.34 -1.66 8.68 -2 8 C-1.34 8 -0.68 8 0 8 C0 6.35 0 4.7 0 3 C-0.33 3 -0.66 3 -1 3 Z " fill="#0C0906" transform="translate(21,2)"/>
<path d="M0 0 C2.6875 -0.3125 2.6875 -0.3125 5 0 C4.01 0.495 4.01 0.495 3 1 C2.67 1.99 2.34 2.98 2 4 C1.34 4 0.68 4 0 4 C0.33 5.65 0.66 7.3 1 9 C-0.98 9.99 -0.98 9.99 -3 11 C-3.33 10.01 -3.66 9.02 -4 8 C-4.66 7.67 -5.32 7.34 -6 7 C-6 13.6 -6 20.2 -6 27 C-6.33 27 -6.66 27 -7 27 C-7 20.07 -7 13.14 -7 6 C-5.68 5.67 -4.36 5.34 -3 5 C-2.2884375 3.7315625 -2.2884375 3.7315625 -1.5625 2.4375 C-1.046875 1.633125 -0.53125 0.82875 0 0 Z " fill="#1C1007" transform="translate(13,2)"/>
<path d="M0 0 C0.78375 0.04125 1.5675 0.0825 2.375 0.125 C1.385 0.62 1.385 0.62 0.375 1.125 C0.045 2.115 -0.285 3.105 -0.625 4.125 C-1.285 4.125 -1.945 4.125 -2.625 4.125 C-2.625 5.445 -2.625 6.765 -2.625 8.125 C-3.285 8.125 -3.945 8.125 -4.625 8.125 C-4.75 5.25 -4.75 5.25 -4.625 2.125 C-2.625 0.125 -2.625 0.125 0 0 Z " fill="#1E3536" transform="translate(15.625,1.875)"/>
<path d="M0 0 C2 3 2 3 2 7 C-1.3 6.67 -4.6 6.34 -8 6 C-8 5.67 -8 5.34 -8 5 C-5.36 5 -2.72 5 0 5 C0 3.35 0 1.7 0 0 Z " fill="#2D1709" transform="translate(27,23)"/>
</svg>
